<svg id="svg" version="1.1" xmlns="http://www.w3.org/2000/svg" xmlns:xlink="http://www.w3.org/1999/xlink" width="400" height="400" viewBox="0, 0, 400,400"><g id="svgg"><path id="path0" d="M107.073 97.860 C 106.923 98.010,106.805 108.408,106.810 120.967 C 106.823 147.959,107.111 151.220,110.071 157.826 C 110.472 158.721,110.800 159.586,110.800 159.749 C 110.800 160.815,116.716 168.000,117.593 168.000 C 117.795 168.000,118.104 168.229,118.280 168.510 C 118.982 169.629,124.486 172.505,128.200 173.694 C 138.420 176.967,155.152 175.158,161.845 170.058 C 162.319 169.696,163.109 169.130,163.599 168.800 C 167.483 166.187,171.959 159.588,173.426 154.312 C 174.639 149.952,174.776 146.793,174.805 122.600 L 174.836 97.800 164.918 97.800 L 155.000 97.800 154.782 122.400 C 154.526 151.398,154.677 150.473,149.589 154.208 C 144.090 158.245,132.874 157.093,130.316 152.229 C 130.076 151.773,129.750 151.310,129.591 151.200 C 129.432 151.090,128.874 150.100,128.351 149.000 L 127.400 147.000 127.200 122.400 L 127.000 97.800 117.173 97.693 C 111.769 97.634,107.224 97.709,107.073 97.860 M245.980 120.580 C 245.565 120.995,245.435 147.105,245.843 148.167 C 246.058 148.728,247.702 148.800,260.243 148.800 L 274.400 148.800 274.400 134.610 L 274.400 120.420 260.380 120.310 C 251.900 120.243,246.209 120.350,245.980 120.580 M135.600 223.046 C 128.158 223.955,120.367 227.608,116.516 231.994 C 114.342 234.469,113.939 235.051,112.935 237.161 C 105.816 252.122,115.628 265.826,137.400 271.332 C 145.950 273.495,148.689 274.374,150.723 275.612 C 154.836 278.113,152.845 283.466,147.071 285.432 C 139.363 288.056,128.364 285.256,122.284 279.122 C 121.014 277.840,118.956 279.130,109.666 287.023 C 108.278 288.203,108.740 289.193,112.351 292.775 C 123.558 303.893,147.728 306.130,163.016 297.463 C 164.419 296.667,168.000 293.945,168.009 293.666 C 168.014 293.520,168.637 292.714,169.392 291.875 C 173.891 286.881,175.143 277.318,172.179 270.596 C 169.143 263.711,161.046 258.405,149.200 255.537 C 134.221 251.912,131.645 250.583,131.294 246.303 C 130.656 238.528,144.982 237.198,155.321 244.073 C 158.228 246.005,158.942 246.326,159.408 245.907 C 159.718 245.628,160.203 245.220,160.486 245.000 C 161.587 244.143,165.411 240.999,165.600 240.796 C 165.710 240.677,166.790 239.804,168.000 238.855 C 170.721 236.721,171.030 236.210,170.286 235.078 C 167.807 231.312,161.271 226.667,156.200 225.068 C 150.147 223.159,149.781 223.099,143.400 222.987 C 139.880 222.925,136.370 222.952,135.600 223.046 M227.186 225.398 C 227.066 230.558,227.205 241.285,227.396 241.593 C 227.556 241.852,231.474 242.000,238.195 242.000 C 247.251 242.000,248.832 242.089,249.371 242.629 C 249.931 243.188,250.000 246.366,250.000 271.586 C 250.000 297.049,250.064 299.939,250.633 300.157 C 251.725 300.576,268.797 300.430,269.611 299.994 C 270.344 299.602,270.370 298.651,270.392 271.326 C 270.408 251.533,270.545 242.907,270.851 242.539 C 271.187 242.133,273.731 241.988,281.944 241.906 L 292.600 241.800 292.600 233.400 L 292.600 225.000 259.900 224.898 C 231.003 224.807,227.198 224.865,227.186 225.398 " stroke="none" fill="#272127" fill-rule="evenodd"></path><path id="path1" d="M0.000 200.000 L 0.000 400.000 200.000 400.000 L 400.000 400.000 400.000 200.000 L 400.000 0.000 200.000 0.000 L 0.000 0.000 0.000 200.000 M128.029 121.200 C 128.247 144.471,128.302 145.917,129.057 147.958 C 129.823 150.032,132.925 153.997,133.785 154.002 C 134.013 154.004,134.740 154.314,135.400 154.692 C 137.338 155.803,144.816 155.688,147.200 154.512 C 153.745 151.281,154.000 150.015,154.000 120.675 C 154.000 108.020,154.109 97.381,154.243 97.033 C 154.456 96.478,155.784 96.400,165.035 96.400 L 175.585 96.400 175.804 97.300 C 176.772 101.266,175.549 153.186,174.456 154.547 C 174.256 154.796,173.968 155.583,173.815 156.295 C 173.663 157.008,173.105 158.358,172.574 159.295 C 172.044 160.233,171.487 161.270,171.336 161.600 C 170.809 162.750,167.683 166.610,166.147 168.007 C 163.462 170.450,160.304 172.345,155.800 174.214 C 154.755 174.648,150.869 175.523,147.600 176.060 C 144.598 176.553,132.623 176.272,131.886 175.692 C 131.619 175.481,130.590 175.189,129.600 175.041 C 119.593 173.552,109.493 163.544,107.153 152.800 C 106.937 151.810,106.598 150.280,106.398 149.400 C 105.997 147.634,105.853 98.049,106.245 97.026 C 106.463 96.459,107.691 96.399,117.145 96.494 L 127.800 96.600 128.029 121.200 M274.977 119.689 C 275.919 121.034,275.914 148.429,274.971 149.371 C 274.029 150.314,246.634 150.319,245.289 149.377 L 244.400 148.755 244.400 134.509 C 244.400 121.814,244.472 120.183,245.062 119.531 C 245.680 118.849,246.679 118.800,260.039 118.800 L 274.355 118.800 274.977 119.689 M150.321 222.344 C 153.436 222.901,159.703 224.976,160.854 225.831 C 161.154 226.055,162.105 226.589,162.966 227.019 C 164.621 227.845,170.627 233.548,171.538 235.159 C 172.275 236.463,171.713 237.372,168.833 239.531 C 167.563 240.484,166.091 241.655,165.562 242.135 C 160.773 246.476,158.470 247.725,157.231 246.653 C 149.865 240.272,138.111 238.738,133.100 243.504 C 131.057 245.446,132.811 250.357,135.567 250.413 C 135.915 250.420,136.549 250.690,136.976 251.013 C 137.404 251.336,138.034 251.601,138.376 251.602 C 138.719 251.604,139.463 251.846,140.028 252.141 C 140.593 252.436,142.029 252.807,143.218 252.965 C 144.407 253.122,145.565 253.396,145.790 253.572 C 146.016 253.749,147.186 254.019,148.390 254.172 C 149.595 254.326,150.765 254.594,150.990 254.767 C 151.216 254.941,152.120 255.273,153.000 255.505 C 156.174 256.342,161.200 258.421,161.200 258.898 C 161.200 259.064,161.538 259.200,161.951 259.200 C 162.364 259.200,162.926 259.470,163.200 259.800 C 163.474 260.130,163.882 260.400,164.108 260.400 C 164.994 260.400,168.725 263.746,170.804 266.405 C 178.634 276.420,174.897 292.503,163.369 298.400 C 162.294 298.950,161.173 299.625,160.879 299.900 C 160.584 300.175,160.106 300.400,159.817 300.400 C 159.528 300.400,158.776 300.669,158.146 300.998 C 157.516 301.326,156.691 301.596,156.314 301.598 C 155.936 301.599,155.036 301.852,154.314 302.161 C 149.033 304.417,132.992 304.415,127.686 302.159 C 126.964 301.851,126.115 301.600,125.800 301.600 C 125.252 301.600,123.845 301.059,120.800 299.676 C 114.781 296.942,107.600 290.710,107.600 288.220 C 107.600 287.491,109.261 285.824,111.900 283.902 C 112.835 283.221,113.600 282.515,113.600 282.332 C 113.600 282.149,113.861 282.000,114.180 282.000 C 114.499 282.000,114.904 281.768,115.080 281.484 C 115.594 280.655,120.198 277.200,120.790 277.200 C 121.086 277.200,122.695 278.249,124.365 279.531 C 126.034 280.813,127.670 281.982,128.000 282.129 C 128.330 282.275,128.870 282.550,129.200 282.739 C 134.312 285.669,143.653 286.135,148.400 283.697 C 153.529 281.062,152.637 276.258,146.787 275.005 C 146.024 274.841,145.220 274.570,145.000 274.402 C 144.780 274.234,143.610 273.902,142.400 273.664 C 138.295 272.857,135.346 272.106,134.498 271.652 C 134.033 271.404,133.287 271.200,132.840 271.200 C 131.862 271.200,130.331 270.562,124.809 267.855 C 101.170 256.265,106.864 226.187,133.407 222.427 C 134.880 222.219,136.195 221.939,136.329 221.805 C 136.708 221.425,147.506 221.841,150.321 222.344 M292.974 223.990 L 294.000 224.380 294.000 233.341 C 294.000 240.317,293.882 242.400,293.467 242.744 C 293.114 243.037,289.293 243.223,282.167 243.293 L 271.400 243.400 271.297 271.962 C 271.224 292.253,271.065 300.680,270.748 301.062 C 270.212 301.709,250.606 301.845,249.600 301.209 C 249.077 300.878,248.987 297.130,248.901 272.115 L 248.801 243.400 237.901 243.297 C 224.578 243.171,225.998 244.350,226.006 233.424 C 226.012 224.965,226.094 224.313,227.200 223.892 C 228.283 223.479,291.881 223.575,292.974 223.990 " stroke="none" fill="#fbfbfb" fill-rule="evenodd"></path><path id="path2" d="M112.922 97.099 C 115.299 97.170,119.079 97.169,121.322 97.098 C 123.565 97.027,121.620 96.969,117.000 96.969 C 112.380 96.970,110.545 97.028,112.922 97.099 M159.700 97.099 C 162.285 97.168,166.515 97.168,169.100 97.099 C 171.685 97.029,169.570 96.972,164.400 96.972 C 159.230 96.972,157.115 97.029,159.700 97.099 M274.980 134.400 C 274.980 141.990,275.034 145.095,275.099 141.300 C 275.165 137.505,275.165 131.295,275.099 127.500 C 275.034 123.705,274.980 126.810,274.980 134.400 M106.493 146.000 C 106.493 146.770,106.575 147.085,106.676 146.700 C 106.776 146.315,106.776 145.685,106.676 145.300 C 106.575 144.915,106.493 145.230,106.493 146.000 M252.900 149.499 C 256.805 149.565,263.195 149.565,267.100 149.499 C 271.005 149.434,267.810 149.380,260.000 149.380 C 252.190 149.380,248.995 149.434,252.900 149.499 M136.900 175.876 C 137.285 175.976,137.915 175.976,138.300 175.876 C 138.685 175.775,138.370 175.693,137.600 175.693 C 136.830 175.693,136.515 175.775,136.900 175.876 M140.100 222.294 C 141.145 222.376,142.855 222.376,143.900 222.294 C 144.945 222.212,144.090 222.144,142.000 222.144 C 139.910 222.144,139.055 222.212,140.100 222.294 M243.900 224.300 C 252.755 224.360,267.245 224.360,276.100 224.300 C 284.955 224.240,277.710 224.191,260.000 224.191 C 242.290 224.191,235.045 224.240,243.900 224.300 M226.566 233.600 C 226.566 237.670,226.625 239.335,226.698 237.300 C 226.771 235.265,226.771 231.935,226.698 229.900 C 226.625 227.865,226.566 229.530,226.566 233.600 M293.365 233.600 C 293.365 237.450,293.425 239.025,293.498 237.100 C 293.571 235.175,293.571 232.025,293.498 230.100 C 293.425 228.175,293.365 229.750,293.365 233.600 M140.900 240.287 C 141.505 240.378,142.495 240.378,143.100 240.287 C 143.705 240.195,143.210 240.120,142.000 240.120 C 140.790 240.120,140.295 240.195,140.900 240.287 M249.389 271.600 C 249.389 287.110,249.439 293.455,249.500 285.700 C 249.561 277.945,249.561 265.255,249.500 257.500 C 249.439 249.745,249.389 256.090,249.389 271.600 M255.300 301.099 C 257.885 301.168,262.115 301.168,264.700 301.099 C 267.285 301.029,265.170 300.972,260.000 300.972 C 254.830 300.972,252.715 301.029,255.300 301.099 M139.091 303.489 C 139.801 303.577,141.061 303.579,141.891 303.492 C 142.721 303.405,142.140 303.333,140.600 303.331 C 139.060 303.329,138.381 303.400,139.091 303.489 " stroke="none" fill="#8d8c8c" fill-rule="evenodd"></path><path id="path3" d="M107.471 97.129 C 106.371 97.341,106.343 98.085,106.500 123.428 C 106.627 144.030,106.751 148.264,107.301 150.800 C 107.986 153.959,109.157 157.120,109.184 155.880 C 109.193 155.484,108.956 154.674,108.658 154.080 C 107.147 151.070,106.749 143.502,106.877 120.200 L 107.000 97.800 117.000 97.800 L 127.000 97.800 127.200 122.400 L 127.400 147.000 128.351 149.000 C 128.874 150.100,129.432 151.090,129.591 151.200 C 129.750 151.310,130.076 151.773,130.316 152.229 C 132.874 157.093,144.090 158.245,149.589 154.208 C 154.677 150.473,154.526 151.398,154.782 122.400 L 155.000 97.800 164.918 97.800 L 174.836 97.800 174.805 122.600 C 174.776 146.793,174.639 149.952,173.426 154.312 C 171.959 159.588,167.483 166.187,163.599 168.800 C 163.109 169.130,162.319 169.696,161.845 170.058 C 159.972 171.485,154.192 173.789,150.600 174.540 C 149.997 174.666,150.058 174.719,150.848 174.754 C 153.584 174.875,160.470 171.809,164.305 168.762 C 170.376 163.939,173.758 157.449,175.008 148.225 C 175.674 143.308,175.884 98.668,175.246 97.661 C 174.907 97.126,155.579 96.919,154.733 97.441 C 154.550 97.555,154.400 108.331,154.400 121.388 C 154.400 147.654,154.365 148.050,151.754 151.512 C 147.004 157.812,135.521 158.000,130.676 151.857 C 127.624 147.988,127.814 149.859,127.683 122.281 C 127.588 102.276,127.465 97.523,127.038 97.359 C 126.454 97.135,108.534 96.924,107.471 97.129 M245.648 120.142 C 245.318 120.540,245.219 124.661,245.295 134.847 L 245.400 149.000 260.000 149.000 L 274.600 149.000 274.600 134.400 L 274.600 119.800 260.353 119.695 C 248.630 119.609,246.025 119.688,245.648 120.142 M274.400 134.610 L 274.400 148.800 260.243 148.800 C 247.702 148.800,246.058 148.728,245.843 148.167 C 245.435 147.105,245.565 120.995,245.980 120.580 C 246.209 120.350,251.900 120.243,260.380 120.310 L 274.400 120.420 274.400 134.610 M109.200 156.999 C 109.200 157.722,111.804 162.325,113.336 164.311 C 115.268 166.814,116.800 168.336,116.800 167.751 C 116.800 167.546,116.291 166.931,115.669 166.385 C 114.087 164.997,111.016 160.495,110.431 158.706 C 110.006 157.407,109.200 156.289,109.200 156.999 M118.400 169.253 C 119.832 170.500,125.191 173.343,125.510 173.023 C 125.607 172.926,124.632 172.338,123.343 171.715 C 120.549 170.367,118.718 169.207,118.280 168.510 C 118.104 168.229,117.744 168.007,117.480 168.016 C 117.216 168.025,117.630 168.582,118.400 169.253 M127.400 173.848 C 129.511 174.630,134.987 175.596,137.000 175.543 C 137.904 175.519,136.598 175.202,134.000 174.813 C 131.470 174.435,128.893 173.918,128.274 173.663 C 127.655 173.408,126.845 173.213,126.474 173.228 C 126.103 173.244,126.520 173.523,127.400 173.848 M145.400 175.200 L 143.800 175.486 145.800 175.503 C 146.900 175.513,148.250 175.376,148.800 175.200 C 150.131 174.774,147.781 174.774,145.400 175.200 M139.900 175.889 C 140.615 175.978,141.785 175.978,142.500 175.889 C 143.215 175.801,142.630 175.728,141.200 175.728 C 139.770 175.728,139.185 175.801,139.900 175.889 M134.093 222.858 C 111.848 226.048,102.729 248.268,117.859 262.415 C 123.019 267.241,129.045 269.905,141.400 272.825 C 149.950 274.846,152.662 276.603,152.292 279.881 C 151.369 288.067,133.306 287.985,123.579 279.751 C 122.175 278.563,120.893 277.638,120.730 277.696 C 120.159 277.897,110.190 285.957,109.132 287.073 L 108.064 288.200 109.487 290.320 C 112.901 295.407,125.977 302.579,131.462 302.372 C 131.868 302.357,131.300 302.088,130.200 301.775 C 129.100 301.462,127.210 300.913,126.000 300.554 C 116.718 297.801,106.725 289.523,109.666 287.023 C 118.956 279.130,121.014 277.840,122.284 279.122 C 129.726 286.630,144.335 288.841,150.671 283.418 C 154.787 279.894,153.444 276.240,147.233 274.066 C 145.151 273.337,144.088 273.042,137.500 271.363 C 115.581 265.775,105.799 252.157,112.935 237.161 C 113.939 235.051,114.342 234.469,116.516 231.994 C 121.984 225.767,129.767 223.072,142.400 223.028 C 146.910 223.013,149.790 222.878,148.800 222.730 C 146.265 222.349,137.085 222.429,134.093 222.858 M151.192 223.586 C 151.517 223.792,152.473 224.077,153.316 224.220 C 157.969 225.006,164.130 228.488,168.145 232.600 C 171.416 235.949,171.410 236.180,168.000 238.855 C 166.790 239.804,165.710 240.677,165.600 240.796 C 165.490 240.914,164.410 241.818,163.200 242.804 C 161.990 243.790,160.762 244.822,160.471 245.098 C 160.181 245.374,159.795 245.600,159.614 245.600 C 159.433 245.600,159.177 245.882,159.045 246.227 C 158.849 246.739,158.972 246.720,159.713 246.127 C 167.144 240.181,170.894 237.020,171.074 236.551 C 172.024 234.076,162.804 226.835,155.648 224.437 C 151.926 223.190,149.977 222.818,151.192 223.586 M226.926 225.100 C 226.789 225.485,226.587 225.963,226.477 226.162 C 226.366 226.361,226.484 226.395,226.738 226.238 C 226.992 226.081,227.200 225.692,227.200 225.374 C 227.200 224.873,231.587 224.809,259.900 224.898 L 292.600 225.000 292.600 233.400 L 292.600 241.800 281.944 241.906 C 273.731 241.988,271.187 242.133,270.851 242.539 C 270.545 242.907,270.408 251.533,270.392 271.326 C 270.370 298.651,270.344 299.602,269.611 299.994 C 268.797 300.430,251.725 300.576,250.633 300.157 C 250.064 299.939,250.000 297.049,250.000 271.586 C 250.000 246.366,249.931 243.188,249.371 242.629 C 248.832 242.089,247.260 242.000,238.303 242.000 C 229.316 242.000,227.765 241.911,227.159 241.363 C 226.508 240.774,226.471 240.786,226.665 241.526 C 226.976 242.715,227.689 242.789,238.900 242.795 C 244.565 242.798,249.242 242.845,249.293 242.900 C 249.345 242.955,249.480 255.960,249.593 271.800 L 249.800 300.600 259.773 300.707 C 266.447 300.779,269.887 300.673,270.173 300.387 C 270.464 300.096,270.664 290.885,270.800 271.480 L 271.000 243.000 281.681 242.800 C 288.773 242.667,292.512 242.450,292.808 242.152 C 293.286 241.674,293.465 225.553,293.001 224.802 C 292.495 223.983,227.218 224.278,226.926 225.100 M226.965 233.600 C 226.965 237.450,227.025 239.025,227.098 237.100 C 227.171 235.175,227.171 232.025,227.098 230.100 C 227.025 228.175,226.965 229.750,226.965 233.600 M137.600 240.155 C 130.255 241.784,128.681 248.057,134.827 251.210 C 136.921 252.284,140.849 253.607,141.786 253.554 C 142.588 253.508,142.588 253.504,141.800 253.324 C 140.677 253.067,136.844 251.678,135.343 250.984 C 131.891 249.389,130.568 245.687,132.591 243.284 C 136.673 238.432,148.407 239.254,155.908 244.917 C 157.070 245.794,158.114 246.419,158.228 246.305 C 158.563 245.970,151.967 241.799,150.000 241.101 C 145.690 239.571,141.629 239.261,137.600 240.155 M143.192 253.986 C 143.517 254.192,144.507 254.475,145.392 254.616 C 146.276 254.756,147.949 255.139,149.108 255.466 C 150.267 255.794,151.415 255.995,151.658 255.914 C 152.075 255.775,143.852 253.578,143.000 253.601 C 142.780 253.607,142.866 253.781,143.192 253.986 M153.200 256.600 C 153.750 256.914,154.443 257.178,154.740 257.186 C 156.089 257.221,162.824 260.613,165.653 262.682 C 174.821 269.386,176.667 283.799,169.392 291.875 C 168.637 292.714,168.014 293.520,168.009 293.666 C 168.000 293.945,164.419 296.667,163.016 297.463 C 159.862 299.251,156.516 300.543,152.268 301.613 C 150.691 302.011,149.822 302.350,150.338 302.368 C 151.980 302.424,158.131 300.496,161.200 298.965 C 172.999 293.075,177.714 280.017,171.947 269.200 C 170.465 266.421,165.065 260.800,163.876 260.800 C 163.744 260.800,162.772 260.296,161.718 259.681 C 159.861 258.598,153.351 255.985,152.580 256.014 C 152.371 256.022,152.650 256.286,153.200 256.600 M134.400 302.860 C 137.239 303.197,144.376 303.195,147.200 302.858 C 148.410 302.714,145.530 302.597,140.800 302.598 C 136.070 302.599,133.190 302.717,134.400 302.860 " stroke="none" fill="#888484" fill-rule="evenodd"></path><path id="path4" d="M106.245 97.026 C 105.853 98.049,105.997 147.634,106.398 149.400 C 106.598 150.280,106.937 151.810,107.153 152.800 C 109.493 163.544,119.593 173.552,129.600 175.041 C 130.590 175.189,131.619 175.481,131.886 175.692 C 133.270 176.782,147.482 176.456,151.600 175.240 L 153.000 174.826 151.600 174.965 C 150.830 175.041,148.673 175.328,146.807 175.603 C 126.370 178.616,110.463 168.242,107.020 149.656 C 106.207 145.272,106.082 98.078,106.880 97.280 C 107.591 96.569,126.536 96.600,127.128 97.313 C 127.416 97.660,127.595 105.673,127.680 122.013 L 127.806 146.200 128.725 148.370 C 133.175 158.880,149.042 158.986,153.259 148.533 L 154.200 146.200 154.315 122.023 C 154.394 105.388,154.565 97.683,154.864 97.323 C 155.525 96.526,174.509 96.567,175.173 97.367 C 175.526 97.793,175.613 104.335,175.522 123.530 C 175.455 137.607,175.532 148.917,175.694 148.662 C 176.045 148.109,176.107 97.944,175.757 97.033 C 175.389 96.074,154.611 96.074,154.243 97.033 C 154.109 97.381,154.000 108.020,154.000 120.675 C 154.000 150.015,153.745 151.281,147.200 154.512 C 144.816 155.688,137.338 155.803,135.400 154.692 C 134.740 154.314,134.013 154.004,133.785 154.002 C 132.925 153.997,129.823 150.032,129.057 147.958 C 128.302 145.917,128.247 144.471,128.029 121.200 L 127.800 96.600 117.145 96.494 C 107.691 96.399,106.463 96.459,106.245 97.026 M245.062 119.531 C 244.472 120.183,244.400 121.814,244.400 134.509 L 244.400 148.755 245.289 149.377 C 246.634 150.319,274.029 150.314,274.971 149.371 C 275.914 148.429,275.919 121.034,274.977 119.689 L 274.355 118.800 260.039 118.800 C 246.679 118.800,245.680 118.849,245.062 119.531 M274.801 120.402 C 275.534 121.771,275.158 148.730,274.400 149.209 C 273.462 149.801,246.277 149.717,245.680 149.120 C 245.172 148.612,244.949 121.518,245.443 120.233 C 245.867 119.127,274.206 119.290,274.801 120.402 M174.795 150.700 C 174.792 151.305,174.446 152.880,174.027 154.200 C 171.698 161.530,168.023 166.551,162.197 170.365 C 159.532 172.109,158.270 172.737,154.600 174.145 C 153.430 174.594,153.243 174.764,153.905 174.779 C 154.403 174.791,155.123 174.626,155.505 174.414 C 155.887 174.202,157.100 173.639,158.200 173.163 C 163.307 170.955,169.580 165.432,171.336 161.600 C 171.487 161.270,172.044 160.233,172.574 159.295 C 173.105 158.358,173.663 157.008,173.815 156.295 C 173.968 155.583,174.263 154.787,174.472 154.528 C 174.916 153.976,175.434 149.600,175.056 149.600 C 174.915 149.600,174.798 150.095,174.795 150.700 M136.329 221.805 C 136.195 221.939,134.880 222.219,133.407 222.427 C 119.468 224.402,110.049 233.988,110.013 246.237 C 109.981 257.213,116.019 264.376,130.514 270.555 C 131.346 270.910,132.393 271.200,132.840 271.200 C 133.287 271.200,134.033 271.404,134.498 271.652 C 135.346 272.106,138.295 272.857,142.400 273.664 C 143.610 273.902,144.780 274.234,145.000 274.402 C 145.220 274.570,146.024 274.841,146.787 275.005 C 152.637 276.258,153.529 281.062,148.400 283.697 C 143.653 286.135,134.312 285.669,129.200 282.739 C 128.870 282.550,128.330 282.275,128.000 282.129 C 127.670 281.982,126.034 280.813,124.365 279.531 C 122.695 278.249,121.086 277.200,120.790 277.200 C 120.198 277.200,115.594 280.655,115.080 281.484 C 114.904 281.768,114.499 282.000,114.180 282.000 C 113.861 282.000,113.600 282.149,113.600 282.332 C 113.600 282.515,112.835 283.221,111.900 283.902 C 109.261 285.824,107.600 287.491,107.600 288.220 C 107.600 290.710,114.781 296.942,120.800 299.676 C 123.845 301.059,125.252 301.600,125.800 301.600 C 126.115 301.600,126.964 301.851,127.686 302.159 C 132.992 304.415,149.033 304.417,154.314 302.161 C 155.036 301.852,155.936 301.599,156.314 301.598 C 156.691 301.596,157.516 301.326,158.146 300.998 C 158.776 300.669,159.528 300.400,159.817 300.400 C 160.106 300.400,160.584 300.175,160.879 299.900 C 161.173 299.625,162.294 298.950,163.369 298.400 C 174.897 292.503,178.634 276.420,170.804 266.405 C 168.725 263.746,164.994 260.400,164.108 260.400 C 163.882 260.400,163.474 260.130,163.200 259.800 C 162.926 259.470,162.364 259.200,161.951 259.200 C 161.538 259.200,161.200 259.064,161.200 258.898 C 161.200 258.421,156.174 256.342,153.000 255.505 C 152.120 255.273,151.216 254.941,150.990 254.767 C 150.765 254.594,149.595 254.326,148.390 254.172 C 147.186 254.019,146.016 253.749,145.790 253.572 C 145.565 253.396,144.407 253.122,143.218 252.965 C 142.029 252.807,140.593 252.436,140.028 252.141 C 139.463 251.846,138.719 251.604,138.376 251.602 C 138.034 251.601,137.404 251.336,136.976 251.013 C 136.549 250.690,135.915 250.420,135.567 250.413 C 135.218 250.406,134.273 249.740,133.467 248.933 C 132.660 248.127,132.000 247.643,132.000 247.858 C 132.000 249.649,137.234 252.116,144.600 253.800 C 165.639 258.607,174.400 266.016,174.400 279.000 C 174.400 289.050,167.750 297.376,157.000 300.785 C 155.460 301.274,153.810 301.826,153.333 302.013 C 150.901 302.966,140.653 303.699,136.422 303.223 C 128.122 302.289,123.704 300.847,115.697 296.455 C 112.973 294.961,107.575 288.611,108.187 287.621 C 108.520 287.082,119.903 278.012,120.566 277.758 C 120.904 277.628,122.249 278.447,123.811 279.736 C 133.803 287.978,152.335 287.788,152.162 279.445 C 152.097 276.352,150.370 275.277,142.075 273.167 C 130.794 270.298,127.422 269.089,122.703 266.224 C 103.931 254.827,107.033 231.145,128.206 224.207 C 142.284 219.593,158.293 222.557,167.667 231.513 C 172.088 235.737,172.142 236.296,168.416 239.231 C 167.214 240.178,165.864 241.269,165.416 241.657 C 163.408 243.393,158.996 246.800,158.757 246.800 C 158.612 246.800,157.347 246.017,155.947 245.059 C 150.716 241.484,147.503 240.400,142.138 240.400 C 137.032 240.400,132.000 242.259,132.000 244.145 C 132.000 244.367,132.495 244.079,133.100 243.504 C 138.111 238.738,149.865 240.272,157.231 246.653 C 158.470 247.725,160.773 246.476,165.562 242.135 C 166.091 241.655,167.563 240.484,168.833 239.531 C 171.713 237.372,172.275 236.463,171.538 235.159 C 170.627 233.548,164.621 227.845,162.966 227.019 C 162.105 226.589,161.154 226.055,160.854 225.831 C 159.703 224.976,153.436 222.901,150.321 222.344 C 147.506 221.841,136.708 221.425,136.329 221.805 M227.200 223.892 C 226.870 224.017,226.468 224.318,226.306 224.560 C 225.768 225.365,225.945 241.774,226.500 242.516 C 227.028 243.222,249.374 243.804,248.939 243.100 C 248.836 242.935,243.910 242.800,237.990 242.800 C 227.759 242.800,227.208 242.762,226.814 242.026 C 226.289 241.046,226.269 225.626,226.792 224.800 C 227.124 224.275,231.254 224.200,260.000 224.200 C 288.746 224.200,292.876 224.275,293.208 224.800 C 293.703 225.582,293.703 241.217,293.209 242.000 C 292.893 242.501,291.031 242.633,281.915 242.800 L 271.000 243.000 270.800 271.667 C 270.690 287.434,270.450 300.484,270.267 300.667 C 269.831 301.102,250.169 301.102,249.733 300.667 C 249.550 300.484,249.305 287.614,249.188 272.067 L 248.976 243.800 248.988 272.315 C 248.999 297.217,249.076 300.877,249.600 301.209 C 250.606 301.845,270.212 301.709,270.748 301.062 C 271.065 300.680,271.224 292.253,271.297 271.962 L 271.400 243.400 282.167 243.293 C 289.293 243.223,293.114 243.037,293.467 242.744 C 293.882 242.400,294.000 240.317,294.000 233.341 L 294.000 224.380 292.974 223.990 C 291.881 223.575,228.283 223.479,227.200 223.892 M131.693 246.000 C 131.693 246.770,131.775 247.085,131.876 246.700 C 131.976 246.315,131.976 245.685,131.876 245.300 C 131.775 244.915,131.693 245.230,131.693 246.000 " stroke="none" fill="#a6a5a6" fill-rule="evenodd"></path></g></svg>